<?xml version="1.0" encoding="utf-8"?>
<!-- Generator: Adobe Illustrator 25.0.1, SVG Export Plug-In . SVG Version: 6.00 Build 0)  -->
<svg version="1.1" id="Layer_1" xmlns="http://www.w3.org/2000/svg" xmlns:xlink="http://www.w3.org/1999/xlink" x="0px" y="0px"
	 viewBox="10 10 200 170">
<style type="text/css">
	.st0{fill:darkred;stroke:#000000;stroke-miterlimit:10;}
</style>
<path class="st0" d="M 21 43 c 5 -23 29.8 -33.7 59.1 -33.7 c 18.4 0 39.3 6.5 49.4 27.7 c 6.6 14 7.1 31.1 1.2 44.8 c -0.1 0.2 0 0.3 0.1 0.5 c 0.1 0.1 0.2 0.2 0.3 0.2 c 0 0 0.1 0 0.1 0 c 2.4 -0.7 4.1 -1.4 5.5 -2.3 c 6.8 -4.3 22.4 -20.2 25.8 -28.2 c 1.2 -2.9 2.4 -11.1 2.6 -12.9 c 0.9 -3.1 1.7 -5.3 3.9 -11.1 c 1.7 -0.2 3 0.5 4.4 2.6 c 2.1 3 2.6 11.4 3.6 15.4 c 0.1 2.9 0.2 5.3 1.2 6.7 c 1 1.5 3.1 2.7 5.5 4.1 c 3.8 2.2 8.4 4.9 11.2 10.1 c 1.4 2.7 2.8 5.1 4 7.3 c 5.4 9.6 8.3 14.9 6.2 18.5 c -0.9 1.4 -2 1.8 -3.1 2.2 c -0.5 0.2 -1 0.3 -1.5 0.6 c -0.6 0.4 -1.3 1 -1.9 1.5 l -0.2 0.1 c -0.1 0.1 -0.2 0.3 -0.1 0.4 c 0.1 0.2 0.2 0.3 0.4 0.3 c 2.9 0.5 5.3 2 6.8 4.3 c 1.5 2.3 1.8 5.1 0.9 7.6 c -1.4 3.8 -5.3 5.8 -8.3 5.8 c -1.3 0 -2.3 -0.4 -2.7 -1.1 c -0.3 -0.5 -0.3 -1.1 0 -1.8 c 0.6 -1.4 0.7 -2.5 0.2 -3.2 c -0.3 -0.4 -0.8 -0.7 -1.4 -0.7 c -0.4 0 -0.9 0.1 -1.3 0.4 c -1.5 0.9 -2.7 2.8 -3.2 3.6 c -3.7 6 -12.5 19.9 -25.5 19.9 c -0.7 0 -1.4 0 -2.1 -0.1 c 0 0 0 0 -0.1 0 c -0.1 0 -0.3 0 -0.3 0.2 c -0.1 0.1 -0.1 0.3 -0.1 0.4 c 4 12.6 2.8 31.6 -13.7 43.5 c -0.2 0.1 -0.2 0.3 -0.2 0.5 c 0.1 0.2 0.2 0.3 0.4 0.3 c 0 0 0 0 0.1 0 c 4.3 -0.6 7.2 -0.8 9.7 -0.8 l 0.3 0 c 5.8 0 8.5 4 8.5 6.7 c 0 1.8 -1.1 2.9 -2.9 2.9 l -63.5 0 c -7.1 0 -64.1 -22 -25.7 -75.6 c 21.4 -31.6 3 -47.6 -61.6 -12.6 z"/>
</svg>
